#tb 0: 1/1000
0,          0,          0,        0,      960, 97eb5fd0599d482662eb0a1def5c5ef2
0,         33,         33,        0,      960, dfdc1b61b478dcca8d411021486aa2ec
0,         66,         66,        0,      960, 2cf560f068bdcb9e345951739091808e
0,        100,        100,        0,      960, 33cacb04c0797fc7bd774251e04b7fb9
0,        133,        133,        0,      960, 7fca126c0542c0dcdcf769b156bd85f5
0,        166,        166,        0,      960, 8a46c5a48cb5bd34be8e647c127f8d61
0,        200,        200,        0,      960, 1ddf07562c0b7dc68ed61b8e1a09fcf0
0,        233,        233,        0,      960, d75911d5eb7fc75ffc3ee40344fc7ed2
0,        266,        266,        0,      960, 498329c8a01d950286af11e1fcf3ac07
0,        300,        300,        0,      960, 7a6ec019df5f3e419d389699094f87c3
